<?xml version="1.0" encoding="utf-8"?>
<!-- Generator: Adobe Illustrator 24.2.1, SVG Export Plug-In . SVG Version: 6.00 Build 0)  -->
<svg version="1.1" id="Layer_1" xmlns="http://www.w3.org/2000/svg" xmlns:xlink="http://www.w3.org/1999/xlink" x="0px" y="0px"
	 viewBox="0 0 64 80" style="enable-background:new 0 0 64 80;" xml:space="preserve">
<g>
	<path d="M22.8,35.2c-3.7,0.1-7.4-0.1-11.1-0.7c-0.4-0.1-2-0.6-3-1l-1.8-0.7c-0.5-0.2-1.1,0.1-1.3,0.6c0,0,0,0,0,0
		c-0.2,0.5,0.1,1.1,0.6,1.3L8,35.4c0.4,0.2,2.7,1,3.3,1.1c3.8,0.6,7.6,0.8,11.4,0.7c2.9,0,6.1,0,6.7,0.6c0.6,0.7,0.4,1.6,0.2,2.7
		c-0.1,0.5-0.1,1.1-0.1,1.6c0,0.6,0,1.3,0,2c0,2.1,0.1,5.6-0.4,6.2c-0.3,0.2-0.9,0.2-1.5,0.1c-0.5-0.6-1.2-1-2-1.1
		c-1.2-0.2-2.3-0.7-3.4-1.3c-0.1-0.3-0.1-0.6-0.1-0.9l0.1,0c0,0,0.5-0.5,1.2-1.1c0.6,1,1.5,1.8,2.5,2.3l0.1,0.1
		c0.2,0.1,0.3,0.2,0.5,0.2c0.3,0,0.7-0.2,0.9-0.5c0.3-0.5,0.2-1.1-0.3-1.4c0,0,0,0,0,0l-0.1-0.1c-2-1.2-1.9-1.8-1.7-2.2
		c0.1-0.2,0.1-0.4,0.1-0.6c0.4-0.5,0.6-1,0.7-1.7c0-0.6-0.4-1-1-1c-0.5,0-1,0.4-1,0.9c-0.6,1-1.4,1.9-2.2,2.7c0-0.1-0.1-0.2-0.1-0.3
		C21.6,44,21,43.8,20.5,44c-0.3,0.1-0.5,0.4-0.5,0.7c-0.1,0.2-0.1,0.4,0,0.6c0.1,0.5,0.2,1,0.2,1.5c0,0.7,0.1,1.3,0.3,2
		c0.6,1.5,4.6,2.4,5,2.5c0.5,0.1,0.6,0.3,0.6,0.3c0.1,0.5,0,1-0.3,1.5c-0.9,1.3-0.9,1.3-4.4,0.2L20.5,53c-2-0.6-3.9-1.3-5.7-2.2
		c-1-0.5-2-2.2-3-3.9c-0.7-1.4-1.6-2.7-2.7-3.9c-0.7-0.8-1.6-1.3-2.5-1.4c-0.5-0.1-1,0.3-1.1,0.9c0,0,0,0,0,0c0,0.2,0,0.4,0.2,0.6
		l-1-0.1c-0.5,0-1,0.4-1.1,0.9c0,0.5,0.4,1,0.9,1l3.9,0.2c0.6,0.8,1.1,1.8,1.6,2.7c1.2,2.1,2.3,4,3.9,4.7c1.9,0.9,3.9,1.7,5.9,2.3
		l0.9,0.3c1.2,0.5,2.5,0.8,3.8,0.9c1.1,0,1.8-0.5,2.8-1.9c0.4-0.5,0.6-1.2,0.7-1.8h0.3c0.7,0,1.4-0.2,2-0.6c1.1-1,1.2-3.6,1.1-7.7
		c0-0.7,0-1.3,0-2c0-0.5,0.1-0.9,0.1-1.4c0.2-1.4,0.4-3-0.7-4.2C30,35.2,27,35.2,22.8,35.2z"/>
	<path d="M59.3,43l-1,0.1c0.1-0.2,0.2-0.4,0.2-0.6c-0.1-0.5-0.5-0.9-1.1-0.9c0,0,0,0,0,0c-1,0.2-1.9,0.7-2.5,1.4
		c-1,1.2-1.9,2.5-2.7,3.9c-1,1.7-2,3.5-3,3.9c-1.8,0.9-3.7,1.6-5.7,2.2l-0.9,0.3c-3.5,1.1-3.5,1.1-4.4-0.2c-0.3-0.4-0.4-1-0.3-1.5
		c0-0.1,0.1-0.3,0.6-0.3c0.3,0,4.3-1,5-2.5c0.2-0.7,0.3-1.3,0.3-2c0-0.5,0-1,0.1-1.6c0.1-0.2,0.1-0.4,0-0.6c0-0.3-0.3-0.6-0.6-0.8
		c-0.5-0.2-1.1,0-1.3,0.5c0,0,0,0,0,0c0,0.1-0.1,0.2-0.1,0.3c-0.9-0.8-1.6-1.7-2.2-2.7c0-0.5-0.5-0.9-1-0.9c-0.6,0-1,0.4-1,1
		c0.1,0.6,0.3,1.2,0.7,1.7c0,0.2,0,0.4,0.1,0.6c0.2,0.4,0.2,1-1.7,2.2l-0.1,0.1c-0.5,0.3-0.6,0.9-0.3,1.4c0,0,0,0,0,0
		c0.2,0.3,0.5,0.5,0.8,0.5c0.2,0,0.4-0.1,0.5-0.2l0.1-0.1c1-0.5,1.9-1.4,2.5-2.3c0.7,0.7,1.2,1.1,1.2,1.1l0.1,0
		c0,0.3-0.1,0.6-0.1,0.9c-1,0.6-2.2,1.1-3.3,1.3c-0.8,0.1-1.5,0.5-2,1.1c-0.6,0.1-1.2,0.1-1.4-0.1c-0.5-0.6-0.4-4.1-0.4-6.2
		c0-0.7,0-1.4,0-2c0-0.6-0.1-1.1-0.1-1.7c-0.1-1.1-0.3-2.1,0.2-2.7c0.5-0.6,3.8-0.7,6.7-0.7c3.8,0.1,7.7-0.1,11.5-0.7
		c0.7-0.1,2.9-0.9,3.3-1.1l1.8-0.7c0.5-0.2,0.7-0.7,0.6-1.2c-0.2-0.5-0.8-0.8-1.3-0.6c0,0,0,0,0,0l-1.8,0.7c-1,0.4-2.6,0.9-3,1
		c-3.7,0.6-7.4,0.8-11.1,0.7c-4.2,0-7,0-8.2,1.3c-1.2,1.3-0.9,2.8-0.7,4.2c0.1,0.5,0.1,0.9,0.1,1.4c0,0.6,0,1.3,0,2
		c0,4.2,0,6.8,1.1,7.7c0.6,0.4,1.3,0.7,2,0.6h0.3c0.1,0.6,0.3,1.3,0.7,1.8c1,1.4,1.7,1.9,2.8,1.9c1.3-0.1,2.6-0.4,3.8-0.9l0.9-0.3
		c2-0.6,4-1.4,5.9-2.4c1.5-0.7,2.7-2.7,3.8-4.7c0.5-0.9,1.1-1.9,1.6-2.7l3.9-0.2c0.6,0,1-0.5,0.9-1.1S59.9,43,59.3,43L59.3,43z"/>
	<path d="M32.9,29.2v-4.4c0-0.6-0.4-1-1-1l0,0c-0.6,0-1,0.4-1,1v4.4c0,0.6,0.4,1,1,1l0,0C32.4,30.2,32.9,29.7,32.9,29.2z"/>
	<path d="M24.6,26.2c-0.4,0.3-0.5,1-0.2,1.4c0,0,0,0,0,0l2.3,3.1c0.2,0.3,0.5,0.4,0.8,0.4c0.2,0,0.4-0.1,0.6-0.2
		c0.5-0.3,0.6-0.9,0.2-1.4c0,0,0,0,0,0L26,26.4C25.7,25.9,25.1,25.8,24.6,26.2z"/>
	<path d="M38.1,26.3l-2.9,2.6c-0.4,0.4-0.4,1-0.1,1.4c0.4,0.4,1,0.5,1.4,0.1l2.9-2.6c0.4-0.4,0.5-1,0.1-1.4
		C39.2,26,38.6,25.9,38.1,26.3C38.1,26.3,38.1,26.3,38.1,26.3z"/>
</g>
</svg>
