<?xml version="1.0" encoding="utf-8"?>
<!-- Generator: Adobe Illustrator 25.2.1, SVG Export Plug-In . SVG Version: 6.00 Build 0)  -->
<svg version="1.1" id="Layer_1" xmlns="http://www.w3.org/2000/svg" xmlns:xlink="http://www.w3.org/1999/xlink" x="0px" y="0px"
	 viewBox="0 0 595.28 841.89" style="enable-background:new 0 0 595.28 841.89;" xml:space="preserve">
<style type="text/css">
	.st0{fill:#010101;}
</style>
<g>
	<path class="st0" d="M227.15,427.13c0-5.89-4.77-10.67-10.66-10.67s-10.67,4.78-10.67,10.67s4.78,10.67,10.67,10.67
		S227.15,433.02,227.15,427.13z"/>
	<path class="st0" d="M232.03,502.12c2.08,2.08,4.81,3.12,7.55,3.12c2.72,0,5.45-1.05,7.53-3.12l45.27-45.25
		c4.16-4.17,4.16-10.94,0-15.09c-4.17-4.16-10.92-4.16-15.09,0l-45.25,45.25C227.86,491.2,227.86,497.95,232.03,502.12z"/>
	<path class="st0" d="M246.67,457.31c16.62-16.62,16.62-43.7,0-60.34c-8.06-8.05-18.78-12.49-30.17-12.49
		c-11.41,0-22.12,4.44-30.17,12.49c-16.64,16.64-16.64,43.72,0,60.34c8.05,8.06,18.77,12.5,30.17,12.5
		C227.89,469.81,238.61,465.37,246.67,457.31z M201.4,412.06c4.03-4.03,9.39-6.25,15.09-6.25c5.69,0,11.05,2.22,15.08,6.25
		c8.31,8.31,8.31,21.84,0,30.15c-4.03,4.03-9.39,6.25-15.08,6.25c-5.7,0-11.06-2.22-15.09-6.25
		C193.09,433.9,193.09,420.37,201.4,412.06z"/>
	<path class="st0" d="M530.7,196.43h-0.89c-1.59-9.55-5.33-18.54-10.95-26.41l0.64-0.63c4.16-4.16,4.16-10.92,0-15.08
		c-4.17-4.16-10.92-4.16-15.09,0l-0.62,0.63c-7.88-5.62-16.87-9.35-26.42-10.95v-0.89c0-5.89-4.77-10.66-10.66-10.66
		s-10.67,4.77-10.67,10.66v0.89c-9.55,1.59-18.55,5.32-26.42,10.94l-0.62-0.62c-4.15-4.16-10.92-4.16-15.08,0
		c-4.17,4.16-4.17,10.92,0,15.09l-15.09,15.08c-4.16-4.16-10.92-4.16-15.08,0c-4.17,4.16-4.17,10.92,0,15.09l-15.09,15.09l0,0
		c-4.16-4.16-10.92-4.16-15.08,0c-4.17,4.16-4.17,10.92,0,15.09l-15.09,15.09l0,0c-4.16-4.16-10.92-4.16-15.08,0
		c-4.17,4.16-4.17,10.92,0,15.09l-15.09,15.09l0,0c-4.16-4.16-10.91-4.16-15.08,0s-4.17,10.92,0,15.09l-19.52,19.52
		c-6.12-2.4-12.72-3.67-19.5-3.67c-13.56,0-26.34,5.04-36.23,14.22c-14.53-7.58-27.7-11.73-39.41-12.37
		c-14.92-0.83-27.53,3.8-37.5,13.77c-12.88,12.87-18.77,26.83-17.5,41.49c1.28,14.97,10,26.94,17.08,34.35l-4,4
		c-20.8,20.8-20.8,54.64,0,75.42l15.22,15.22c-12.06,13.53-33.67,42.69-32.69,77.25c0.73,25.77,13.69,49.03,38.5,69.12l7.47,6.03
		l120.67-120.67l0,0l66.45-66.45c15.44-15.44,19.41-38.06,11.92-57.19l19.53-19.53c2.09,2.09,4.81,3.12,7.55,3.12
		s5.47-1.04,7.55-3.12c4.16-4.16,4.16-10.92,0-15.09l0,0l15.08-15.09l0,0c2.09,2.09,4.81,3.12,7.55,3.12s5.45-1.04,7.55-3.12
		c4.16-4.16,4.16-10.92,0-15.09l0,0l15.08-15.09c2.09,2.09,4.81,3.12,7.55,3.12s5.45-1.04,7.55-3.12c4.16-4.16,4.16-10.92,0-15.09
		l0,0l15.08-15.08l0,0c2.09,2.09,4.81,3.12,7.55,3.12s5.45-1.04,7.55-3.12c4.15-4.16,4.15-10.92,0-15.09l15.08-15.09l0,0
		c2.09,2.09,4.81,3.12,7.55,3.12s5.45-1.04,7.55-3.12c4.16-4.16,4.16-10.92,0-15.09l-0.62-0.62c5.62-7.88,9.34-16.87,10.94-26.41
		h0.89c5.89,0,10.66-4.78,10.66-10.67C541.35,201.21,536.59,196.43,530.7,196.43z M254.2,327.25c8.55,0,16.58,3.33,22.62,9.37
		l60.36,60.34c9.5,9.5,11.75,23.55,6.78,35.22c-10.42-12.25-28.94-33.13-51.05-54.44c-19.95-19.22-38.42-34.51-55.33-45.85
		C242.54,328.87,248.25,327.25,254.2,327.25z M144.8,361.12c-0.66-8.06,3.17-16.31,11.36-24.5c5.56-5.56,12.5-8.03,21.23-7.55
		c6.11,0.34,14.2,2.17,24.64,6.94l-46.31,46.3C151.05,377.39,145.51,369.84,144.8,361.12z M151.73,416.46l11.58-11.56
		c0.27-0.25,0.53-0.51,0.77-0.78l57.38-57.38c15.19,9.71,33.81,24.38,56.5,46.21c23.31,22.45,42.91,44.91,52.36,56.13L228.72,550.68
		c-0.67-2.31-1.52-4.66-2.55-7.02c-5.25-12.05-13.48-20.95-13.83-21.33l-0.14-0.12l-60.47-60.48
		C139.25,449.24,139.25,428.95,151.73,416.46z M163.91,615.49c-15.05-14.31-22.91-30-23.41-46.72c-0.25-8.34,1.31-16.41,3.86-23.91
		c2.06,1.97,4.72,2.95,7.38,2.95c2.73,0,5.45-1.05,7.55-3.12c4.16-4.17,4.16-10.92,0-15.08l-5.12-5.12
		c4.42-7.12,9.12-13.06,12.84-17.34l29.81,29.83c0.77,0.86,6.3,7.19,9.8,15.2c5.61,12.88,1.5,19.11-2.08,22.69l0,0L163.91,615.49z
		 M436.53,297.6C436.53,297.6,436.53,297.6,436.53,297.6c-0.02,0.01-0.02,0.01-0.02,0.01l-84.25,84.27l-22.62-22.62l99.34-99.34
		c0-0.01,0-0.01,0-0.01l7.55-7.55l0.02-0.02l37.69-37.7c4.17-4.17,4.17-10.92,0-15.09c-4.16-4.17-10.91-4.17-15.08,0L314.54,344.17
		l-22.62-22.62l23.92-23.92v-0.01l0,0l30.17-30.16c0,0,0,0,0-0.01l0,0l30.17-30.16l0,0c0-0.01,0-0.01,0-0.01l60.34-60.34
		c8.05-8.05,18.77-12.49,30.16-12.49c11.41,0,22.11,4.44,30.17,12.5c8.06,8.05,12.5,18.77,12.5,30.16s-4.44,22.11-12.5,30.17
		L436.53,297.6z"/>
</g>
</svg>
