<svg xmlns="http://www.w3.org/2000/svg" xmlns:xlink="http://www.w3.org/1999/xlink" version="1.1" x="0px" y="0px" viewBox="0 0 24 30" style="enable-background:new 0 0 24 24;" xml:space="preserve"><g><path d="M3.705,14.279c-1.102,0-1.998,0.896-1.998,1.998s0.896,1.998,1.998,1.998s1.999-0.896,1.999-1.998   S4.806,14.279,3.705,14.279z M3.705,17.476c-0.66,0-1.197-0.538-1.197-1.198c0-0.661,0.537-1.198,1.197-1.198   c0.661,0,1.198,0.538,1.198,1.198C4.903,16.938,4.366,17.476,3.705,17.476z"/><path d="M1.255,9.033c0.048,0.02,0.101,0.031,0.156,0.031h0.214l5.232,4.162c0.036,0.024,0.716,0.475,1.742,0.475   c0.296,0,0.62-0.038,0.967-0.133c1.361-0.375,4.618-1.104,4.594-1.104c0.421-0.023,1.236-0.386,1.303-1.591   c0.04-0.74,0.067-1.421,0.082-1.823c0.575-0.036,1.036-0.504,1.036-1.089c0-0.608-0.495-1.102-1.103-1.102h-0.216   c-0.428-0.595-1.03-0.896-1.83-0.854c-0.124,0.007-0.185-0.038-0.248-0.135C12.86,5.38,12.411,5.063,11.84,4.918   c-0.306-0.078-0.617-0.104-0.93-0.077c-0.144,0.012-0.241-0.022-0.344-0.131C10.134,4.251,9.6,4.027,8.964,4.051   c-0.468,0.017-0.9,0.159-1.308,0.379C7.549,4.487,7.464,4.497,7.349,4.441C7.182,4.36,7.005,4.292,6.825,4.245   c-0.692-0.18-1.318-0.084-1.846,0.444C4.817,4.85,4.771,5.15,4.558,5.198C4.35,5.244,4.105,5.173,3.877,5.187   C3.273,5.225,2.752,5.434,2.406,5.96C2.336,6.066,2.263,6.1,2.139,6.108C1.582,6.14,1.247,6.434,1.156,6.912   C0.674,7.029,0.307,7.445,0.307,7.962C0.307,8.515,0.723,8.954,1.255,9.033z M14.663,10.83c-0.041,0.748-0.471,0.828-0.613,0.845   c-0.135,0.03-3.314,0.741-4.697,1.122c-1.176,0.328-2.015-0.21-2.022-0.214L2.909,9.064h2.24h1.186h7.968h0.44   C14.728,9.467,14.701,10.122,14.663,10.83z M2.072,6.833C2.21,6.799,2.349,6.811,2.487,6.821C2.641,6.831,2.774,6.78,2.832,6.639   c0.309-0.744,0.926-0.792,1.598-0.721c0.152,0.016,0.302,0.05,0.453,0.063c0.18,0.016,0.287-0.078,0.331-0.249   c0.173-0.667,0.684-0.98,1.353-0.825C6.8,4.96,7.021,5.046,7.222,5.171C7.425,5.299,7.608,5.28,7.804,5.159   c0.273-0.169,0.563-0.301,0.88-0.364c0.583-0.117,1.083,0.032,1.449,0.504c0.172,0.222,0.364,0.295,0.628,0.264   c0.298-0.035,0.596-0.032,0.89,0.043c0.48,0.122,0.834,0.407,1.046,0.852c0.107,0.224,0.26,0.303,0.498,0.275   c0.234-0.028,0.469-0.052,0.706-0.005c0.132,0.026,0.249,0.075,0.36,0.134H2.025C2.045,6.853,2.049,6.838,2.072,6.833z M1.411,7.66   h14.066c0.164,0,0.302,0.139,0.302,0.302s-0.138,0.302-0.302,0.302h-0.32h-0.854H6.334H5.149H1.411   c-0.167,0-0.303-0.136-0.303-0.302S1.244,7.66,1.411,7.66z"/><path d="M22.696,4.513c-0.001,0-0.002,0-0.002,0l-2.302,0.183c-0.434,0.025-0.796,0.29-0.953,0.656   c-0.694,0.142-1.726,0.713-2.055,2.206c-0.077,0.352-0.146,0.751-0.217,1.172c-0.291,1.72-0.653,3.86-2.041,4.26   c-1.698,0.488-6.637,1.687-7.988,2.014c-0.521-1.397-1.857-2.401-3.434-2.401c-2.025,0-3.674,1.648-3.674,3.674   s1.648,3.674,3.674,3.674c2.026,0,3.675-1.648,3.675-3.674c0-0.17-0.028-0.333-0.05-0.496c0.638-0.154,2.063-0.5,3.579-0.876   l3.074,3.047c0.075,0.075,0.178,0.116,0.281,0.116c0.038,0,0.077-0.005,0.115-0.017c0.141-0.042,0.246-0.158,0.276-0.301   l0.85-4.062c1.727-0.632,2.133-2.944,2.452-4.825c0.069-0.407,0.134-0.793,0.209-1.134c0.236-1.072,0.889-1.428,1.286-1.55   c0.162,0.354,0.513,0.612,0.933,0.636l2.31,0.183c0.01,0,0.021,0.001,0.031,0.001c0.686,0,1.244-0.558,1.244-1.244   C23.969,5.07,23.413,4.513,22.696,4.513z M3.705,19.151c-1.584,0-2.873-1.29-2.873-2.874c0-1.585,1.289-2.875,2.873-2.875   c1.585,0,2.874,1.29,2.874,2.875C6.579,17.862,5.29,19.151,3.705,19.151z M14.022,16.866l-2.206-2.187   c1.044-0.261,2.053-0.519,2.815-0.723L14.022,16.866z M22.739,6.199l-2.3-0.182c-0.157-0.009-0.284-0.126-0.284-0.261   s0.127-0.252,0.292-0.262l2.278-0.182c0.245,0,0.443,0.199,0.443,0.444C23.168,5.996,22.977,6.192,22.739,6.199z"/></g><text x="0" y="39" fill="#000000" font-size="5px" font-weight="bold" font-family="'Helvetica Neue', Helvetica, Arial-Unicode, Arial, Sans-serif">Created by Atif Arshad</text><text x="0" y="44" fill="#000000" font-size="5px" font-weight="bold" font-family="'Helvetica Neue', Helvetica, Arial-Unicode, Arial, Sans-serif">from the Noun Project</text></svg>