<svg height='300px' width='300px'  fill="#000000" xmlns="http://www.w3.org/2000/svg" xmlns:xlink="http://www.w3.org/1999/xlink" version="1.1" x="0px" y="0px" viewBox="0 0 512 512" style="enable-background:new 0 0 512 512;" xml:space="preserve"><title>Democracy-election-vote-consensus-hands</title><path d="M472,176c-2.7,0-5.4,0.5-8,1.4V168c0-13.3-10.7-24-24-24c-2.7,0-5.4,0.5-8,1.4V144c0-13.3-10.7-24-24-24s-24,10.7-24,24v9.4  c-12.5-4.4-26.2,2.1-30.6,14.6c-0.9,2.6-1.4,5.3-1.4,8v55.9c-14.9,0-27.1,12.1-27.1,27c0,4.9,1.3,9.7,3.9,13.9l35.8,59.6  c2.2,3.7,3.4,8,3.4,12.3V496h16v-80h72v80h16V346.7c0-5.2,1.7-10.2,4.8-14.4l11.2-14.9c5.2-6.9,8-15.3,8-24V200  C496,186.8,485.2,176,472,176z M456,400h-72v-16h48v-16h-48v-15.5c14.2-0.3,47-0.4,72-0.5V400z M480,293.3c0,5.2-1.7,10.2-4.8,14.4  L464,322.7c-3,4-5.2,8.5-6.5,13.3c-8.2,0-22.9,0-37.5,0.1c-12.8,0.1-23,0.1-30.3,0.3c-2.5,0-4.7,0.1-6.5,0.1  c-0.9-4.3-2.5-8.4-4.8-12.2l-35.8-59.6c-3.1-5.2-1.4-12,3.8-15.2c1.7-1,3.7-1.6,5.7-1.6v0.1h1.4c2.4,0.3,4.7,1.4,6.4,3.1l14.8,14.8  c6,6,9.4,14.1,9.4,22.6v7.4h16v-7.4c0-12.7-5-25-14.1-33.9l-14.8-14.8c-1-1-2-1.9-3.1-2.7V176c0-4.4,3.6-8,8-8s8,3.6,8,8v56h16v-88  c0-4.4,3.6-8,8-8s8,3.6,8,8v96h16v-72c0-4.4,3.6-8,8-8s8,3.6,8,8v80h16v-48c0-4.4,3.6-8,8-8s8,3.6,8,8V293.3z"></path><path d="M336,189.3V96c0-13.3-10.7-24-24-24c-2.7,0-5.4,0.5-8,1.4V64c0-13.3-10.7-24-24-24c-2.7,0-5.4,0.5-8,1.4V40  c0-13.3-10.7-24-24-24c-13.3,0-24,10.7-24,24v9.4c-12.5-4.4-26.2,2.1-30.6,14.6c-0.9,2.6-1.4,5.3-1.4,8v57.1  c-14.3-4.4-29.4,3.6-33.8,17.8c-2.3,7.4-1.3,15.3,2.6,21.9l35.8,59.6c2.2,3.7,3.4,8,3.4,12.3V496h16V296h80v200h16V242.7  c0-5.2,1.7-10.2,4.8-14.4l11.2-14.9C333.2,206.4,336,198,336,189.3z M296,280h-80v-16h80V280z M320,189.3c0,5.2-1.7,10.2-4.8,14.4  L304,218.7c-5.2,6.9-8,15.3-8,24v5.3h-80v-7.1c0-7.2-2-14.4-5.7-20.6l-35.8-59.6c-3.1-5.2-1.4-12,3.8-15.2c4.4-2.6,9.9-1.9,13.5,1.7  l17.2,17.2c4.5,4.5,7,10.6,7,17V192h16v-10.7c0-10.6-4.2-20.8-11.7-28.3L208,140.7V72c0-4.4,3.6-8,8-8s8,3.6,8,8v56h16V40  c0-4.4,3.6-8,8-8s8,3.6,8,8v96h16V64c0-4.4,3.6-8,8-8s8,3.6,8,8v80h16V96c0-4.4,3.6-8,8-8s8,3.6,8,8V189.3z"></path><path d="M160,224c-2.7,0-5.4,0.5-8,1.4V216c0-13.3-10.7-24-24-24c-2.7,0-5.4,0.5-8,1.4V192c0-13.3-10.7-24-24-24s-24,10.7-24,24v9.4  c-12.5-4.4-26.2,2.1-30.6,14.6c-0.9,2.6-1.4,5.3-1.4,8v55.9c-14.9,0-27.1,12.1-27.1,27.1c0,4.9,1.3,9.7,3.9,13.9l35.8,59.6  c2.2,3.7,3.4,8,3.4,12.3V496h16v-72h72v72h16V394.7c0-5.2,1.7-10.2,4.8-14.4l11.2-14.9c5.2-6.9,8-15.3,8-24V248  C184,234.8,173.2,224,160,224z M168,341.3c0,5.2-1.7,10.2-4.8,14.4L152,370.7c-5.2,6.9-8,15.3-8,24V408H72v-15.1  c0-7.2-2-14.4-5.7-20.6l-35.8-59.6c-3.1-5.2-1.4-12,3.8-15.2c1.7-1,3.7-1.6,5.7-1.6v0.1h1.4c2.4,0.3,4.7,1.4,6.4,3.1l14.8,14.8  c6,6,9.4,14.1,9.4,22.6v7.4h16v-7.4c0-12.7-5-25-14.1-33.9l-14.8-14.8c-1-1-2-1.9-3.1-2.7V224c0-4.4,3.6-8,8-8s8,3.6,8,8v56h16v-88  c0-4.4,3.6-8,8-8s8,3.6,8,8v96h16v-72c0-4.4,3.6-8,8-8c4.4,0,8,3.6,8,8v80h16v-48c0-4.4,3.6-8,8-8s8,3.6,8,8V341.3z"></path></svg>