<svg xmlns="http://www.w3.org/2000/svg" xmlns:xlink="http://www.w3.org/1999/xlink" version="1.1" x="0px" y="0px" viewBox="0 0 100 125" enable-background="new 0 0 100 100" xml:space="preserve"><path d="M94.925,86.103c0-1.26-0.002-2.808-1.146-3.8c1.145-0.991,1.146-2.539,1.146-3.799c0-2.199-0.116-3.399-0.785-4.051  c-0.003-0.047,0.01-0.092,0-0.139L79.755,2.304c-0.007-0.034-0.028-0.06-0.038-0.092c-0.021-0.066-0.045-0.127-0.078-0.187  c-0.031-0.056-0.064-0.106-0.104-0.154C79.493,1.822,79.45,1.779,79.4,1.738c-0.05-0.041-0.1-0.075-0.156-0.105  c-0.057-0.031-0.113-0.054-0.175-0.073c-0.063-0.02-0.126-0.032-0.193-0.039C78.841,1.517,78.811,1.5,78.774,1.5H21.23  c-0.035,0-0.063,0.016-0.097,0.02c-0.07,0.007-0.134,0.02-0.2,0.041c-0.061,0.019-0.116,0.042-0.17,0.071  c-0.057,0.031-0.108,0.065-0.158,0.107c-0.05,0.041-0.094,0.083-0.135,0.133c-0.04,0.048-0.073,0.098-0.104,0.154  c-0.033,0.06-0.058,0.12-0.078,0.187c-0.01,0.032-0.032,0.058-0.039,0.092L5.863,74.313c-0.01,0.048,0.003,0.092,0,0.139  c-0.671,0.651-0.787,1.852-0.787,4.053c0,1.26,0.001,2.808,1.147,3.799c-1.146,0.992-1.147,2.54-1.147,3.8s0.001,2.808,1.146,3.799  c-1.146,0.991-1.147,2.54-1.147,3.8c0,2.025,0,4.799,4.762,4.799h80.32c4.764,0,4.764-2.773,4.764-4.799  c0-1.259-0.002-2.806-1.146-3.798C94.924,88.912,94.925,87.363,94.925,86.103z M35.704,88.901v-5.599h28.595v5.599H35.704z   M64.299,90.901V96.5H35.704v-5.599H64.299z M35.704,81.303v-5.599h28.595v5.599H35.704z M8.024,73.704L22.05,3.5h17.279  L33.78,73.704H9.839H8.024z M91.979,73.704h-1.815H66.224L60.674,3.5h17.281L91.979,73.704z M64.217,73.704h-28.43L41.335,3.5  h17.332L64.217,73.704z M66.299,75.704h23.864c1.127,0,2.404,0,2.581,0.179c0.181,0.183,0.181,1.479,0.181,2.621  c0,2.094,0,2.799-2.762,2.799H66.299V75.704z M7.076,78.504c0-1.143,0-2.438,0.181-2.621c0.177-0.179,1.455-0.179,2.582-0.179  h23.865v5.599H9.839C7.076,81.303,7.076,80.598,7.076,78.504z M33.704,83.303v5.599H9.839c-2.763,0-2.763-0.705-2.763-2.799  c0-2.095,0-2.8,2.763-2.8H33.704z M7.075,93.701c0-2.095,0-2.8,2.762-2.8h0.002h23.865V96.5H9.837  C7.075,96.5,7.075,95.795,7.075,93.701z M90.157,96.5H66.299v-5.599h23.858c2.764,0,2.764,0.705,2.764,2.8  C92.921,95.795,92.921,96.5,90.157,96.5z M66.299,88.901v-5.599h23.864c2.762,0,2.762,0.705,2.762,2.8c0,2.094,0,2.799-2.762,2.799  h-0.006H66.299z"/><text x="0" y="115" fill="#000000" font-size="5px" font-weight="bold" font-family="'Helvetica Neue', Helvetica, Arial-Unicode, Arial, Sans-serif">Created by Noura Mbarki</text><text x="0" y="120" fill="#000000" font-size="5px" font-weight="bold" font-family="'Helvetica Neue', Helvetica, Arial-Unicode, Arial, Sans-serif">from the Noun Project</text></svg>