<svg height='300px' width='300px'  fill="#000000" xmlns="http://www.w3.org/2000/svg" viewBox="0 0 64 64" x="0px" y="0px"><g data-name="Plan-Business Plan-Paper-Hand-Financial"><path d="M61.707,10.293l-8-8A1,1,0,0,0,53,2H29a5.006,5.006,0,0,0-5,5V29l-7.86,4.537a1,1,0,0,0-.335.316l-2.33,3.532-2.394,1.384A1,1,0,0,0,9.716,38.4l-6.929,4a1,1,0,0,0-.366,1.367l10,17.321a1,1,0,0,0,1.366.366l6.929-4a1,1,0,0,0,.366-1.366h0l3.844-2.219A4.95,4.95,0,0,0,29,56H57a5.006,5.006,0,0,0,5-5V11A1,1,0,0,0,61.707,10.293ZM54,5.414,58.586,10H55a1,1,0,0,1-1-1ZM13.653,59.223l-9-15.589,5.2-3,9,15.589ZM12.081,40.5l2.6-1.5a1.009,1.009,0,0,0,.335-.315l2.33-3.533L28.4,28.767a2,2,0,0,1,2,3.466l-4.33,2.5a1,1,0,0,0-.365,1.368,7,7,0,0,1-2.567,9.564L24,47.151V51a4.943,4.943,0,0,0,.111,1.031l-4.029,2.325ZM57,54H29a2.983,2.983,0,0,1-2.783-1.9A2.738,2.738,0,0,1,26,51V45.932a9.037,9.037,0,0,0,1.888-9.939L31.4,33.966a4,4,0,0,0-4-6.932l-1.4.809V7a3,3,0,0,1,3-3H52V9a3,3,0,0,0,3,3h5V51A3,3,0,0,1,57,54Z"></path><path d="M44,24H42a1,1,0,0,1-1-1H39a3,3,0,0,0,3,3v1h2V26a3,3,0,0,0,0-6H42a1,1,0,0,1,0-2h2a1,1,0,0,1,1,1h2a3,3,0,0,0-3-3V15H42v1a3,3,0,0,0,0,6h2a1,1,0,0,1,0,2Z"></path><path d="M43,31A10,10,0,1,0,33,21,10.011,10.011,0,0,0,43,31Zm0-18a8,8,0,1,1-8,8A8.009,8.009,0,0,1,43,13Z"></path><rect x="32" y="35" width="4" height="2"></rect><rect x="38" y="35" width="18" height="2"></rect><rect x="32" y="39" width="24" height="2"></rect><rect x="32" y="43" width="24" height="2"></rect><rect x="32" y="47" width="24" height="2"></rect></g></svg>